<svg xmlns="http://www.w3.org/2000/svg" viewBox="0 0 512 512">
  <defs>
    <linearGradient id="mainGrad" x1="0%" y1="0%" x2="100%" y2="100%">
      <stop offset="0%" stop-color="#8b5cf6" />
      <stop offset="100%" stop-color="#d946ef" />
    </linearGradient>
  </defs>
  <rect width="512" height="512" rx="120" fill="url(#mainGrad)" />
  <!-- Headphones Icon -->
  <g transform="translate(56, 56) scale(0.78)">
     <!-- Left Ear Cup -->
     <path d="M64 298v64a42 42 0 0 0 42 42h42a42 42 0 0 0 42-42v-64a42 42 0 0 0-42-42h-42a42 42 0 0 0-42 42z" fill="white"/>
     <!-- Right Ear Cup -->
     <path d="M320 298v64a42 42 0 0 0 42 42h42a42 42 0 0 0 42-42v-64a42 42 0 0 0-42-42h-42a42 42 0 0 0-42 42z" fill="white"/>
     <!-- Headband -->
     <path d="M106 298v-64a150 150 0 1 1 300 0v64" stroke="white" stroke-width="42" stroke-linecap="round" fill="none"/>
  </g>
</svg>
